# xmcd
# 
# Track frame offsets:
#     150
#     4396
#     15443
#     28056
#     47980
#     64414
#     84517
#     99594
#     114274
#     134311
#     147154
#     156391
#     177458
# 
# Disc length: 2614
# 
# Revision: 2
# Processed by: cddbd v1.5.2PL0 Copyright (c) Steve Scherf et al.
# Submitted via: fre:ac v1.0.17
# 
DISCID=b00a340d
DTITLE=Josh Ritter - The Beast In Its Tracks
DYEAR=2013
DGENRE=Folk/Rock
TTITLE0=Third Arm
TTITLE1=Evil Eye
TTITLE2=A Certain Light
TTITLE3=Hopeful
TTITLE4=Nightmares
TTITLE5=New Lover
TTITLE6=Heart's Ease
TTITLE7=In Your Arms Again
TTITLE8=The Appleblossom Rag
TTITLE9=Bonfire
TTITLE10=In Your Arms Awhile
TTITLE11=Joy To You Baby
TTITLE12=Lights
EXTD=
EXTT0=
EXTT1=
EXTT2=
EXTT3=
EXTT4=
EXTT5=
EXTT6=
EXTT7=
EXTT8=
EXTT9=
EXTT10=
EXTT11=
EXTT12=
PLAYORDER=
